<svg xmlns="http://www.w3.org/2000/svg" viewBox="-120 -120 240 240">
  <defs>
    <path id="b" d="M -30 -91.2 L -30 0 A 30 30 0 0 0 26 15 L 26 56.3 A 62 62 0 0 1 -62 0 L -62 -73.3 A 96 96 0 0 1 -30 -91.2 Z"/>
    <path id="q" d="M 30 91.2 L 30 0 A 30 30 0 0 0 -26 -15 L -26 -56.3 A 62 62 0 0 1 62 0 L 62 73.3 A 96 96 0 0 1 30 91.2 Z"/>
    <mask id="m" maskUnits="userSpaceOnUse" x="-100" y="-100" width="200" height="200"><rect x="-100" y="-100" width="200" height="200" fill="#fff"/><circle r="34" fill="#000"/><use href="#b" fill="#000" stroke="#000" stroke-width="8" stroke-linejoin="round"/><use href="#q" fill="#000" stroke="#000" stroke-width="8" stroke-linejoin="round"/></mask>
  </defs>
  <rect x="-120" y="-120" width="240" height="240" rx="54" fill="#07090A"/>
  <g transform="scale(.94)">
    <circle r="100" fill="#EEF2EF" mask="url(#m)"/>
    <use href="#b" fill="#019F42"/>
    <use href="#q" fill="#019F42"/>
  </g>
</svg>
